M48
;Layer_Color=9474304
;FILE_FORMAT=2:5
INCH,LZ
;TYPE=PLATED
T1F00S00C0.01200
T2F00S00C0.01400
T3F00S00C0.02800
T4F00S00C0.03000
T5F00S00C0.03200
T6F00S00C0.03600
T7F00S00C0.04000
T9F00S00C0.04200
T10F00S00C0.05200
T11F00S00C0.05906
T12F00S00C0.07874
T13F00S00C0.09055
T14F00S00C0.13780
T15F00S00C0.17000
%
T01
X0284547Y0050492
X0347638Y0040945
X0371457Y0039567
X0375837
X0380217
X0377264Y0046457
X03725Y0049606
X0379Y0052756
X0393996Y0050787
X0398031
X0393406Y0043307
Y0037008
X0396457Y0039862
X0412106Y0036713
X0415453Y0038791
X0422047Y0039862
X0424803Y0037106
X0427953Y0040059
X0431025Y0037994
X0434154Y0040059
X0440453Y0040157
X0443996Y0030512
X0452756Y0034449
X0452461Y0043307
X0454823Y0046457
X0452384Y004951
X0454331Y0052756
X0452264Y0055906
X0409547Y0045768
X0498524Y0047933
X05329Y0090851
X0536547Y0090914
X0539245Y0087822
X0544245
X0549245
X0559245
X0564245
X0569245
X0574245
X0578051Y009941
X0573453Y0105123
X0569614Y010217
X0564201
X0549213Y0107677
X0526968Y0117126
X0576701Y0125892
X0584317Y0125913
X0605315Y0182579
X0538511Y0180028
X0538189Y0172343
X0458389Y0172154
X0416929Y0171653
X037613Y0169536
X0383661Y0117224
X0381496Y0112106
X0379724Y0081102
X0375984
X0375197Y005876
X040187Y0097047
X0405335Y0096068
X0408957Y0096949
X0412557Y0096255
X0415178Y0098725
X0418504Y0096851
X0421654Y0099311
X0424824Y0103647
X0428248Y0124213
X0413386Y013002
X0408104Y0125066
X0451772Y0117126
X0471283Y0127861
X0481027Y0126089
X0491166Y0124219
X0504823Y0117126
X0501181Y0087822
X0496161
X0491142
X0486221
X0481201
X0476181
X0471161
X0466168
X0454331Y0065354
X0452286Y0062208
X0454724Y0059153
X0355039Y0124882
X0350039Y0124961
X0345039Y0124941
X0340039Y0124823
X0335039Y0124803
X033002
X0325Y0124606
X0320079Y0124508
X0352576Y013101
X0231067Y0149571
X0220472Y015
X0220177Y0154823
X0213002Y0111521
X0229921Y0084449
X0206195Y0111521
X0176387Y0143609
X017872Y0158563
X0148622Y0158858
X01375Y0155315
X0140066Y0140558
X0143602Y0137106
X0147343Y014065
X0099803Y014626
X0100098Y0177657
X0104803Y0177579
X0097933Y0209252
X012815Y0208691
X0133999Y0208619
X014065Y0209449
X0131299Y0200492
X0134455Y0192824
X0074803Y01365
X0059842Y0117717
X0055905Y0121653
X0055512Y0138976
X0046063Y0151575
X0045669Y0181496
X0045276Y0187402
X0136713Y024498
Y0249114
X0234755Y0290861
X0240453Y0290748
X0254343Y0303263
X0291437Y0290256
X0298327Y0290354
X0306693Y0320965
X0608852Y0239561
X0375492Y0376969
X0306791Y0420472
X0292126Y0428445
X0275689Y0439961
X0242421Y0426378
X0225886Y0421654
T02
X0005Y0005
Y00125
Y002
Y0035
Y00425
Y005
X00125
Y00425
Y0035
X002
Y00275
X00275
Y0035
Y00425
X002
Y005
X00275
X0035
Y00425
Y0035
Y00275
Y002
Y00125
Y0005
X00275
X002
X00125
Y00125
X00425
Y0005
X005
Y00125
Y002
X00425
Y00275
Y0035
Y00425
Y005
X005Y00425
Y00275
X00575
Y002
Y00125
Y0005
X0065
Y00125
Y002
Y00275
Y00425
X00575
Y005
X008
Y00425
X0095
Y005
X01025
Y00425
X011Y005
X0125
X014
X01475
X0155
X01625Y00275
Y002
Y00125
X0155
X01475
X014
X01325
X0125
X01175
X011
X01025
X0095
X00875
X008
X00725
Y0005
X008
X00875
X0095
X01025
X011
X01175
X0125
X01325
X014
X01475
X0155
X01625
X017
Y00125
Y002
Y00275
X01775Y00125
Y0005
X0185
X01925
X02
X02075
Y002
X02
X01925
Y00275
Y00425
X0185
Y005
X02075
Y00425
X01325Y00275
X0125
X01325Y002
X01025
X0095
X00875
X008
X00725
X0215
Y00275
Y0005
X02225
X023
X02375
X0245
X02525
X026
X02675
X02525Y00275
X029
X03275Y0035
Y00425
X0335
Y0035
Y005
X03575
Y00425
X0365
X04175Y005
X04625
Y00425
Y0035
Y00275
X0455
X047
Y0035
Y00425
Y005
X04775
Y00425
Y0035
Y00275
X04925
X05
X05075
Y00425
X0515
Y0035
Y005
X04925
X05225Y0005
X053
X05375
X0545
X05525
X056
X05675
Y00125
Y002
X0575
Y00125
Y0005
X05825
Y00125
X059
Y0005
X05975
Y00125
Y002
Y00275
X05825Y0035
X0575
X05675
Y00425
Y005
X0575
Y00425
X05975Y005
X062
Y00425
Y0035
Y00275
Y002
Y00125
X06125
X0605
Y0005
X06125
X062
Y00575
Y0065
Y00725
X06125
Y008
X062
Y00875
X0605
X05975
X059
Y0095
Y01025
Y011
Y01175
Y0125
X05975
Y01175
X0605
Y0125
Y01325
X05975
Y01475
X059
Y017
X05825
X05975
X0605
X06125
Y0155
Y01475
Y0125
X062
Y01175
X05525Y011
X0545Y0125
Y01475
X05525
Y017
X0545
X053
Y01925
Y02
X0575Y01925
Y02075
X059
X05975
X0605Y02
X0575Y0065
Y00575
X053Y00875
Y0095
X05225
X0515
Y00875
Y008
Y00725
Y0065
Y00575
X05Y00725
X04925
X0485
X04775
X047
Y0065
X04625
Y00575
X047
X04775
X044Y00725
Y008
Y01175
X04325
Y0125
X044
X0455
X04625
Y01475
X047
X04925
Y0155
Y017
Y01925
X0485
Y02
Y02075
X04925
Y02
X047Y02075
X04475
X044
X0425
X041
X04025
X03875
X04025Y01925
X041
X04025Y017
X0395
X04025Y0155
Y01475
X03875
X0395Y01325
X0425Y01475
X044Y0185
Y01925
X04475
X05225
Y0185
Y017
X0515Y01475
X05075
X05225Y01325
Y01175
X0515
X05225Y00875
Y008
Y02
X041Y00575
X04025
X03575
X0335
X03125Y00725
X02675
X026
Y0065
X02675
Y00575
X026Y008
X02375Y00725
X02225
X0215
Y0095
X02225
X02375
X0245
X02525Y014
X0275
X029Y01475
Y01175
X02975
X0305
X03275Y01325
Y0155
X03125
Y017
X0305
X03125Y0185
Y01925
Y02
Y02075
X0305
X0275Y01925
X02675
X026
X02525
X0245
X02375
X023
X02225
X0215
Y0185
Y01775
Y017
Y01625
Y0155
Y01475
Y014
X02225Y01625
Y017
Y01775
Y0185
X023
Y01775
Y017
Y01625
X02375
Y017
Y01775
Y0185
X0245
Y01775
X02525
Y0185
Y02
X026
Y01775
X0275Y0185
X02225Y02075
X0215
X0365
Y01925
X035Y017
X03425
X0335
X03425Y01475
X035
X02075
Y0155
X02
X01925
X0185
Y014
X01925Y01625
Y017
Y01775
X0185
X01775
Y0185
X017
Y01925
X01775
X0185
Y0185
X01925
Y01925
X02
Y0185
Y01775
Y017
Y01625
X02075
Y017
Y01775
Y0185
Y01925
Y02075
X01775
X017
X0155Y01925
Y0185
X014
Y01775
X0125
X01175
X011
Y0185
X01025
Y01925
X011
X01175
Y0185
X0125
Y01925
X014
X0125Y017
X01175
Y01625
X0125
Y014
X01175
X011
X01175Y01325
X0125
X01325
Y01025
X0125
X01175
X011
X01025
X0095
X00875
X008
X00725
Y0095
X008
X00875
Y00875
Y008
X008
X00725
X0065
X00575
Y00725
Y0065
Y00575
X0065Y0065
Y00725
X00725
X008Y00575
X0095
X01025
X011
X0125
Y008
X01175
X011
X01025
X0095
Y00875
Y0095
X01025
X011
X01175
X0125
X01325
X014
Y00875
Y008
X01475
Y00725
Y00875
Y0095
Y01025
X014
X0155
Y0095
Y00875
Y008
X01625
Y00875
Y0095
Y01025
X017
Y0095
Y00875
Y008
X01775
Y00875
Y0095
Y01025
X0185
Y0095
Y00875
Y008
Y00575
X02075
Y00725
Y0095
X008Y011
X00725
X00575Y00875
Y0155
Y01625
Y01775
Y0185
Y01925
X00725
X008
X00875
Y02075
X008Y01775
X00725
X0065
Y0155
X00725
X00875
X0095
X00425Y01775
Y01925
X0035
X00275
X002
Y02
Y02075
X00275Y02
X00425Y02075
X0005Y01925
Y01775
X00125
X002
X0005Y01625
Y0155
Y01475
Y014
Y01325
Y0125
Y01175
Y011
Y01025
X00125
Y011
Y01175
Y0125
Y014
Y01475
X002Y011
Y01025
X00275
Y011
Y00875
X002
X00125
X0005
Y00725
X00125
X002
Y0065
Y00575
X00125
X0005
X00275
Y0065
Y00725
Y008
X002
X0035
Y00725
Y0065
Y00575
X00425
Y0065
Y00725
Y008
Y00875
X0035
X005Y008
Y00725
Y0065
X00425Y0215
X0035
X00275
X002
X00125
X0005
Y02225
Y023
X00125
Y02225
Y0245
Y02525
Y026
X002
Y02525
Y0245
X00275
X0035Y02375
X00425Y02225
X0035Y02675
Y0275
X00275
Y02825
X0035
Y029
Y02975
Y03125
Y032
X00275
Y03275
X0035
Y0335
Y03425
X00275Y035
X00125
X0005
Y03575
Y0365
X00275
X0035
X005Y03275
Y032
X00425Y03125
X005Y02975
Y029
X002Y0305
X0005
Y03125
Y032
Y03275
Y02825
Y0275
Y02675
X00575Y02975
X0065
Y03125
Y03275
X00875
Y03125
Y0305
X0095
Y02975
Y03125
X01025
Y0305
Y03275
Y0335
X0095Y03425
Y035
X01025
X01175Y03275
Y032
Y03125
X01325Y032
Y03275
X014
X01475
Y03125
Y02975
X014
X01325
X0125Y026
Y02525
X01325
X014
X0125Y02375
X01175
X011
Y023
X0095
Y02225
Y02375
Y0245
X008
Y02375
X00725
X0065
X008Y023
Y026
X0095
X011Y0245
X0125Y023
Y02225
X01775
Y023
Y02375
X02
X02075Y023
Y02225
Y026
Y02675
X02
Y0305
X01925
X0185
Y02975
Y03125
X01925
X02
X02075
Y0305
X017
Y03125
X01625Y03425
Y0365
X0155
X01325
Y03425
X01775Y035
X0185
Y0335
X01925
X02075Y03425
X02Y03575
X0215Y03425
Y03275
X0245
Y032
Y03125
Y0305
X02525Y032
X0245Y0335
X02675
Y03575
X026
Y0365
X02525
X029
X02975
Y03575
Y035
X03125
Y03575
Y0365
X0305
X029Y032
X02825Y02975
Y0275
Y02675
Y026
Y02525
Y0245
Y02375
Y023
X02675
Y02375
Y0245
X02525
Y02375
Y023
X02225
X0215
Y02225
X02225
Y02375
Y02525
X0215
Y026
X02525Y0275
Y02825
X02675
Y0275
Y026
X02975
Y02525
Y0245
Y02375
X0305
Y026
Y02675
X02975
Y0275
X0305
Y029
X032
X03125Y0305
Y03125
X03425Y0305
X035
Y02975
Y029
X03425
Y02825
Y0275
X035
Y02675
Y026
X03275
Y0245
Y02375
Y023
Y0215
X03425Y02375
X035Y023
X0365
Y02375
Y0245
Y0215
X03575Y0275
Y02825
X035
X03575Y029
Y02975
Y0305
X0365
Y02975
X035Y03275
X03575Y0335
Y03575
X0365Y035
X03275Y0275
X02675Y0215
X04025
X041
Y023
X04025
Y02375
Y0245
X041
Y02375
Y026
X04025
Y02675
Y0275
Y02825
X041
Y0275
Y02675
X04175
Y026
Y0275
Y02825
Y029
X041
Y02975
Y0305
X04025
X0395
X03875
X038
X03725
Y029
Y02825
Y0275
X038
Y02825
Y029
Y02975
X03875
Y029
Y02825
Y0275
Y02675
X038Y026
X03725
X038Y03125
X03875
X0395
Y032
X04025Y03125
X041
Y032
Y03275
X04025
X03875Y0335
X038
Y03425
Y035
X03725
Y0365
X038
Y03575
X03875Y0365
X0395
Y03575
Y03425
X041Y035
Y03575
Y0365
X0425
Y035
X04175
X0425Y0335
Y03275
Y03125
X04175
Y0305
Y02975
X0425
Y0305
X04325
Y03125
X044Y0305
Y02975
Y029
Y02825
X04325
Y0275
X044
Y02675
X04475
Y0275
Y02825
Y029
Y02975
Y0305
X0455
Y02975
Y03125
Y032
X04625
Y03125
Y0305
X047
Y02975
Y029
Y02825
X04625
Y0275
X047
X04775
Y02675
Y02825
Y029
Y02975
Y0305
Y03125
X047
Y032
X04775
X0485
Y03125
Y0305
Y02975
X04925Y0305
Y03125
Y032
X05
Y03125
Y0305
Y02975
Y029
Y02825
X04925
Y0275
Y02675
X05
Y0275
X05075
Y02675
Y02825
Y029
Y02975
Y0305
Y03125
Y032
X0515
Y03125
Y0305
Y02975
X05225Y0305
Y03125
Y032
Y0335
X0515
X05075
X05
X04925
X0485
X04775
X047
X04625
X047Y03425
X04775
X0485
X04925
X05
Y035
X05075
Y03425
X0515
X05225
Y02825
Y0275
Y026
Y0245
Y023
X05075
X04925
X0485
Y02375
Y0245
X04925
Y02375
Y0215
X0485
X04475
X044
Y023
Y02375
Y0245
X04475
Y02375
Y023
X05225Y0215
X044Y0335
X0395Y02975
X053Y029
Y02825
Y0275
X05375
Y02825
Y029
Y02975
Y0305
X053
Y03125
Y032
X05375
Y03125
X0545
Y0305
Y02975
Y029
Y02825
Y0275
X05525
Y02825
Y029
Y02975
Y0305
Y03125
Y032
X0545
Y0335
X05375
X053
X05525
Y03425
Y035
Y03575
Y0365
X056Y0335
X05675
X0575
Y032
X05675
X056
Y03125
Y0305
Y02975
Y029
Y02825
Y0275
Y02675
X0545Y026
X05375
X053
Y0245
Y023
Y0215
X0545Y023
X056
X0575Y026
X05825
X0575Y0275
X05675Y02825
Y029
Y02975
X0575
Y029
Y0305
Y03125
X05675
X05825
Y032
Y03275
X059
Y032
Y03125
X05975
Y032
Y03275
Y0335
X059
Y03425
Y035
X05975
Y03425
X0605
Y0335
Y03275
Y032
Y03125
X06125
Y032
Y03275
Y0335
Y03425
X062
Y0335
Y03275
Y032
Y03125
Y02825
X06125
X0605Y0275
Y026
X06125Y02525
X062Y026
X0605Y029
X05975
Y02975
X0605Y03575
X06125
X062
X0605Y0215
Y03725
X06125
X062
Y03875
X05975
Y038
X05825
X0575
X05675
X056
X05675Y03725
X0575
X05825
Y03875
X0575
X05675
Y0395
Y04025
Y041
X0575
Y04025
Y0395
X05825
X059
Y041
Y04175
X05975
Y041
X0605Y0425
X06125
X062
Y04625
X06125
X0605
X05975
X059
X05825
X0575
X05675
X056
X05525
X0545
X05375
X053
Y0455
Y04475
Y044
Y04325
X05375
Y044
X0545
Y04325
X05525Y0425
Y04175
Y044
Y04475
Y0455
X0545
X056
Y04475
Y044
X05675Y04475
Y0455
X0575
Y04475
X05825
Y0455
X059
Y04475
X05975
Y0455
X053Y041
X05225
X0515
X05225Y04025
X0515256Y0390354
X0515551Y0384252
X0515256Y0376181
X04925Y04025
X04775
Y0425
Y04325
X047
X04775Y044
Y04475
Y0455
Y04625
X047
X04625
X0455
X04475
X044
X04325
X0425
X04175
X041
X04025
X0395
X03875
X038
X03725
Y04475
Y044
Y04325
X038
Y044
Y04475
Y0455
X04025
X041
Y044
X04175
X0425
Y04325
Y04175
Y041
Y04025
X041
X04025
X0395
X03875
X038
Y0395
X03875Y038
X0395Y03875
X04025
X041Y03725
X0425Y03875
X04325
X044Y04025
Y041
Y04175
Y0425
X04325
Y044
Y04475
X0425
X044
Y044
X04475
Y04475
X0455Y044
Y0425
X04475
Y04175
Y041
Y04025
X04625Y038
Y03725
X0485Y0425
Y04325
Y044
Y04475
Y0455
Y04625
X04925
Y0455
Y04475
Y044
Y04325
Y0425
X05
Y04325
Y044
Y04475
Y0455
Y04625
X05075
Y0455
Y04475
Y044
Y04325
X0515
Y044
Y04475
Y0455
Y04625
X05225
Y0455
Y04475
Y044
Y04325
X0395
X03875
X0395Y04175
X041
Y041
X0365Y04025
X03575Y0395
Y04175
X0365Y04325
X03425
Y044
X032
X03125
Y04475
X032
Y04325
Y04175
Y041
X03125
X0305
X02975
X029
X02825
X0275
X02675
X026
X02525
Y04025
Y0395
X026
Y03875
X02675
Y0395
Y04025
X026
Y04175
X02525
Y04325
X0245
X02375
Y044
Y04475
X023
X02225
X0215
Y044
Y04325
Y0425
Y04175
X02225
Y041
Y04025
Y0395
X023Y04025
Y041
X02375
Y04025
Y0395
X0275
Y03875
X02825
Y0395
Y04025
X0275
X029
Y0395
Y03875
X02975
Y038
Y03725
X03125
Y03875
X0305
Y0395
X02975
Y04025
X0305
X03125
Y0395
X032Y04025
X03275Y041
Y04175
X02825
Y044
X029
Y04625
X02825
X0275
X02675
X026
X02525
X0245
X02375
X023
X02225
X0215
Y0455
X02225
X023
X02375
X0245
Y04475
Y044
X02525
Y04475
Y0455
X026
Y04475
X02675Y0455
X0275
X02975Y04625
X0305
X03125
X032
X03275
X0335
X03425
X035
X03575
X0365
X02225Y044
Y04325
Y0425
X02075
X02
X01925
X0185
X01775
X017
X01625
X0155
X01475
X014
X01325
X0125
X01175
X011
X01025
X0095
X00875
X008
X00725
Y04175
X0065
X00575
Y0395
X0065
Y038
Y03725
X00575
X008
X0095
X01025
Y0395
X0095
Y04025
X01025
Y04175
X0095
X00875
X008
Y04025
Y0395
Y04325
X00725
Y044
Y04475
X0065
Y0455
X00575
Y04625
X0065
X00725
Y0455
X008
Y04475
Y044
X00875
Y04325
X0095
Y044
Y04475
X00875
Y0455
Y04625
X008
X0095
Y0455
X01025
Y04475
Y044
Y04325
X011
Y044
Y04475
Y0455
Y04625
X01025
X01175
Y0455
Y04475
Y044
Y04325
X0125
Y044
Y04475
Y0455
Y04625
X01325
Y0455
Y04475
Y044
Y04325
X014
Y044
Y04475
Y0455
Y04625
X01475
Y0455
Y04475
Y044
Y04325
X0155
Y044
Y04475
Y0455
Y04625
X01625
Y0455
Y04475
Y044
Y04325
X017
Y044
Y04475
Y0455
Y04625
X01775
Y0455
Y04475
Y044
Y04325
X0185
Y044
Y04475
Y0455
Y04625
X01925
Y0455
Y04475
Y044
Y04325
X02
Y044
Y04475
Y0455
Y04625
X02075
Y0455
Y04475
Y044
Y04325
Y04175
X02
X01925
X0185
X01775
X01625
X0155
X01475
X01325
X0125
X01175
X011
X01325Y04025
Y0395
X014
Y04025
X0155
Y0395
X01625
Y04025
X0155Y041
Y038
X01775Y0395
Y04025
X0185
Y0395
X005
X0035
X00275
X002
Y04025
Y041
Y04175
Y0425
X00125
X0005
Y04175
Y041
Y04025
Y0395
Y03875
Y038
Y03725
X00125
X00275
Y038
Y03875
X0035
Y038
Y03725
X005
X0035Y04025
X00275
Y041
Y04175
Y0425
Y04325
X002
X00125
X0005
Y044
Y04475
Y0455
Y04625
X00125
Y0455
Y04475
Y044
X002
X00275
X0035
Y04325
Y0425
Y04175
Y041
X005Y04175
X00425Y04475
X0035
Y0455
X00275
Y04625
X002
X0035
X00425
Y0455
X005
Y04625
T03
X0251673Y003622
X0534547Y0051476
X0267614Y0107024
X0221457Y0135335
X0466437Y0326575
X0556693Y0384252
Y0392126
Y04
X0588189
Y0384252
X0463386Y0422343
X0346457Y0394783
X0331988Y0401673
X0332579Y0447146
X0338878
T04
X0294094Y0044783
Y0051083
X0301181Y0047933
Y0041634
X0301181Y0054232
T05
X01191Y0019379
Y0029221
Y0050579
X0142179Y00243
X0152021
X0175079
X0184921
X0152821Y00566
X0142979
X01191Y0060421
X0571654Y0345118
Y0355118
Y0365118
X0570866Y0418752
Y0428752
Y0438752
T06
X008563Y0031201
Y0041201
Y0051201
X0483465Y0053071
Y0043071
Y0033071
Y0063071
X008563Y0061201
X00277Y0121757
X00177
Y0131757
X00277
Y0141758
X00177
Y0151758
X00277
Y0161758
X00177
X0517126Y0368071
X0503346Y0369291
X0500394Y0383071
X0503346Y039685
X0517126Y0398071
T07
X0589213Y0020472
X0609213
X0622193Y0136565
Y0156565
Y0186565
X0622607Y0197309
X0592607
X0581552
X0581248Y0186565
X0592193
Y0156565
X0581248
Y0136565
X0592193
X0551248
X0540303
Y0156565
X0551248
Y0186565
X0540303
X0540497Y0197309
X0551552
X0510497
X0510303Y0186565
X0499358
X0499442Y0197309
X0469442
X0469358Y0186565
X0458413
X0458387Y0197309
X0428387
X0428413Y0186565
X0417075
X0417225Y0197309
X0387225
X0387075Y0186565
X037613
X037617Y0197309
X037613Y0156565
X0387075
Y0136565
X037613
X0417075
X0428413
Y0156565
X0417075
X0458413
X0469358
Y0136565
X0458413
X0499358
X0510303
Y0156565
X0499358
X034613
X0335185
Y0136565
X034613
X0305185
X0294215Y0136609
X0264215
Y0166609
Y0186609
X0271985Y0204466
X0241985
X0230187
X0294215Y0186609
X0305185Y0186565
X03052Y0197309
X03352
X0335185Y0186565
X034613
X034617Y0197309
X0305185Y0156565
X0294215Y0166609
X0200187Y0204466
X0188389
X0158389
X0146591
X0116591
X0104793
X0074793
X0063271Y0204288
X0033271
Y0224288
X0023327Y0225492
X0033271Y0254288
X0023327Y0269193
X0006792Y0249114
Y0292815
X0030598Y0302968
X0023327Y0312894
X0041622Y0318716
X0042573Y0361088
X0055126Y0361039
X0012573Y0361088
X0006792Y0336516
X0065244Y0351787
X008296Y0344798
X0085126Y0361039
X0097016
X0106976Y0344798
X0099496Y0321176
X0123512
X0133723Y0309805
Y0335001
X0138906Y0361039
X0127016
X0168906
X0181189
X0172331Y0344798
X0196934
X0211189Y0361039
X0188866Y0321176
X019674Y0295488
X0172724
X0162119Y0304794
Y0329991
Y0278022
X0158389Y0254466
X0146591
X0116591
X0104793
X009989Y0271866
X0076268Y0271472
X0074793Y0254466
X0063271Y0254288
Y0224288
X0074793Y0224465
X0104793
X0116591
X0146591
X0158389
X0188389
X0200187
Y0254466
X0188389
X018926Y0271866
X0123905
X0133723Y0283033
X010737Y0295488
X0083354
X0222106Y0296639
X0222032Y03101
X0213469Y0321176
X0222032Y03401
X0222031Y0351425
X0252031
X0252032Y03401
X0272032
X0272031Y0351425
X0289272Y0353346
X0305807
X0305709Y0310039
X0289173
X0272032Y03101
X0272106Y0296639
X0252106
X0252032Y03101
X0252106Y0266639
X0272106
X0271985Y0254466
X0241985
X0230187
X0222106Y0266639
X0213276Y0271866
X0230187Y0224465
X0241985
X0271985
X03052Y0217309
Y0247309
X03352
X034617
Y0217309
X03352
X0333356Y0264713
X0363855
X0341021Y0296209
X0310521
X037152
X040202
X0432519
X0463018
X0493518
X0524017
X0516353Y0264713
X0510497Y0247309
X0499442
X0469442
X0458387
X0455354Y0264713
X0485853
X0499442Y0217309
X0510497
X0469442
X0458387
X0428387
X0417225
Y0247309
X0428387
X0424854Y0264713
X0394355
X0387225Y0247309
X037617
Y0217309
X0387225
X0540497
X0551552
Y0247309
X0540497
X0581552
X0592607
X0622607
Y0217309
X0592607
X0581552
X0569687Y0264713
X0272031Y0381425
X0252031
X0222031
X0211189Y0381039
Y0411039
X0181189
X0168906
X0138906
X0127016
X0097016
X0085126
Y0381039
X0097016
X0127016
X0138906
X0168906
X0181189
X0055126
X0042573Y0381088
Y0411088
X0055126Y0411039
X0012573Y0411088
Y0381088
T09
X019193Y0052756
X0246555Y0054331
Y0074016
X019193Y0075591
T10
X0011161Y0025571
X0051161Y0035571
Y0055571
X0071161Y0045571
X0011161Y0065571
X0288441Y033385
X0306441
X0544094Y0343307
Y0353307
Y0363307
Y0402362
Y0412362
Y0422362
X0306539Y0377157
X0288539
T11
X06008Y0281672
T12
X0297638Y0031398
Y0064469
T13
X0587808Y026868
Y0294665
X0613792
Y026868
T14
X0610236Y0102362
X005315
X0610236Y0399606
X005315Y0433071
T15
X0485761Y0353307
Y0412362
M30
