G04 Layer_Color=16711935*
%FSLAX25Y25*%
%MOIN*%
G70*
G01*
G75*
%ADD120R,6.29921X0.09843*%
%ADD121C,0.11811*%
%ADD132R,0.03556X0.04343*%
%ADD133R,0.04540X0.04343*%
%ADD134R,0.04540X0.04343*%
%ADD139R,0.19698X0.08300*%
%ADD145R,0.05800X0.06800*%
%ADD147R,0.04343X0.03950*%
%ADD149R,0.06800X0.05800*%
%ADD150R,0.03950X0.04343*%
%ADD151R,0.04343X0.03556*%
%ADD152R,0.14579X0.13005*%
%ADD153R,0.06706X0.06706*%
%ADD154C,0.06706*%
%ADD155C,0.08674*%
%ADD156O,0.08674X0.18517*%
%ADD157O,0.08674X0.16548*%
%ADD158O,0.16548X0.08674*%
%ADD159C,0.07300*%
%ADD160P,0.07902X8X112.5*%
%ADD161C,0.09461*%
%ADD162C,0.08300*%
%ADD163R,0.08300X0.06800*%
%ADD164O,0.12611X0.08674*%
%ADD165C,0.18300*%
%ADD166C,0.09068*%
%ADD167O,0.08674X0.07887*%
%ADD168C,0.12611*%
%ADD169O,0.07493X0.06115*%
%ADD170C,0.10642*%
%ADD171C,0.16548*%
%ADD172O,0.07887X0.08674*%
%ADD173O,0.05918X0.07887*%
%ADD174O,0.07887X0.05918*%
%ADD175C,0.26391*%
G04:AMPARAMS|DCode=176|XSize=86.74mil|YSize=78.87mil|CornerRadius=0mil|HoleSize=0mil|Usage=FLASHONLY|Rotation=135.000|XOffset=0mil|YOffset=0mil|HoleType=Round|Shape=Round|*
%AMOVALD176*
21,1,0.00787,0.07887,0.00000,0.00000,135.0*
1,1,0.07887,0.00278,-0.00278*
1,1,0.07887,-0.00278,0.00278*
%
%ADD176OVALD176*%

%ADD177C,0.03800*%
%ADD178R,0.07493X0.10249*%
%ADD179R,0.03753X0.07887*%
%ADD180R,0.03950X0.06115*%
G04:AMPARAMS|DCode=181|XSize=80.83mil|YSize=137.92mil|CornerRadius=0mil|HoleSize=0mil|Usage=FLASHONLY|Rotation=0.000|XOffset=0mil|YOffset=0mil|HoleType=Round|Shape=Octagon|*
%AMOCTAGOND181*
4,1,8,-0.02021,0.06896,0.02021,0.06896,0.04042,0.04875,0.04042,-0.04875,0.02021,-0.06896,-0.02021,-0.06896,-0.04042,-0.04875,-0.04042,0.04875,-0.02021,0.06896,0.0*
%
%ADD181OCTAGOND181*%

%ADD182R,0.06312X0.07099*%
%ADD183R,0.22847X0.23635*%
%ADD184O,0.08800X0.03200*%
%ADD185O,0.03162X0.09855*%
%ADD186R,0.05918X0.04737*%
%ADD187R,0.06800X0.10800*%
%ADD188R,0.09068X0.08083*%
%ADD189R,0.06800X0.06800*%
%ADD190R,0.04147X0.07099*%
%ADD191R,0.03800X0.03800*%
%ADD192R,0.05800X0.04400*%
%ADD193R,0.04400X0.04400*%
%ADD194R,0.07099X0.04147*%
%ADD195R,0.05131X0.07493*%
%ADD196R,0.04343X0.04343*%
D120*
X314961Y3921D02*
D03*
Y467520D02*
D03*
D121*
X519783Y19587D02*
D03*
X21161Y450492D02*
D03*
D132*
X529453Y387457D02*
D03*
X535358D02*
D03*
X529453Y380957D02*
D03*
X535358D02*
D03*
X36047Y130757D02*
D03*
X41953D02*
D03*
X36047Y151424D02*
D03*
X41953D02*
D03*
X287008Y343209D02*
D03*
X292913D02*
D03*
X306004Y343406D02*
D03*
X300098D02*
D03*
X239816Y31496D02*
D03*
X245721D02*
D03*
X447343Y325295D02*
D03*
X441437D02*
D03*
X316634Y317323D02*
D03*
X310728D02*
D03*
X302067Y435236D02*
D03*
X307972D02*
D03*
D133*
X247247Y43796D02*
D03*
X257090Y47537D02*
D03*
X254626Y424311D02*
D03*
X244783Y420571D02*
D03*
X306693Y446653D02*
D03*
X296850Y442913D02*
D03*
X306693Y424803D02*
D03*
X296850Y421063D02*
D03*
D134*
X257090Y40056D02*
D03*
X244783Y428051D02*
D03*
X296850Y450393D02*
D03*
Y428543D02*
D03*
D139*
X612421Y418666D02*
D03*
Y450666D02*
D03*
Y348752D02*
D03*
Y380752D02*
D03*
D145*
X236614Y353303D02*
D03*
Y362303D02*
D03*
X236713Y310882D02*
D03*
Y319882D02*
D03*
X124803Y343110D02*
D03*
Y334110D02*
D03*
X118331Y297457D02*
D03*
Y306457D02*
D03*
X602075Y161959D02*
D03*
Y152959D02*
D03*
X53671Y243388D02*
D03*
Y234388D02*
D03*
X43571Y243288D02*
D03*
Y234288D02*
D03*
X23204Y333052D02*
D03*
Y342052D02*
D03*
X561524Y161959D02*
D03*
Y152959D02*
D03*
X519398Y161959D02*
D03*
Y152959D02*
D03*
X438295Y161959D02*
D03*
Y152959D02*
D03*
X396957Y161959D02*
D03*
Y152959D02*
D03*
X42016Y272260D02*
D03*
Y281260D02*
D03*
X131854Y234977D02*
D03*
Y243977D02*
D03*
X156657Y234977D02*
D03*
Y243977D02*
D03*
X165712Y234977D02*
D03*
Y243977D02*
D03*
X114457Y264047D02*
D03*
Y273047D02*
D03*
X133354D02*
D03*
Y264047D02*
D03*
X142409D02*
D03*
Y273047D02*
D03*
X211381Y236158D02*
D03*
Y245158D02*
D03*
X151465Y264047D02*
D03*
Y273047D02*
D03*
X242090Y234977D02*
D03*
Y243977D02*
D03*
X240771Y274688D02*
D03*
Y283688D02*
D03*
X180205Y263992D02*
D03*
Y272992D02*
D03*
X171150D02*
D03*
Y263992D02*
D03*
X231571Y274688D02*
D03*
Y283688D02*
D03*
X205709Y320685D02*
D03*
Y329685D02*
D03*
X196740D02*
D03*
Y320685D02*
D03*
X180598D02*
D03*
Y329685D02*
D03*
X89654Y264047D02*
D03*
Y273047D02*
D03*
X171937Y320685D02*
D03*
Y329685D02*
D03*
X115650Y343110D02*
D03*
Y334110D02*
D03*
X12598Y322539D02*
D03*
Y313539D02*
D03*
D147*
X219226Y116224D02*
D03*
Y121736D02*
D03*
X250150Y116224D02*
D03*
Y121736D02*
D03*
X224380Y116224D02*
D03*
Y121736D02*
D03*
X193457Y116224D02*
D03*
Y121736D02*
D03*
X111220Y27165D02*
D03*
Y21654D02*
D03*
X163681Y59055D02*
D03*
Y53543D02*
D03*
X173917Y59055D02*
D03*
Y53543D02*
D03*
X589000Y29244D02*
D03*
Y34756D02*
D03*
X609500Y29244D02*
D03*
Y34756D02*
D03*
X499402Y204199D02*
D03*
Y209711D02*
D03*
Y240026D02*
D03*
Y234514D02*
D03*
X581513Y240813D02*
D03*
Y235302D02*
D03*
X540457Y240420D02*
D03*
Y234908D02*
D03*
X458347Y240026D02*
D03*
Y234514D02*
D03*
X417186Y240813D02*
D03*
Y235302D02*
D03*
X376131Y239632D02*
D03*
Y234120D02*
D03*
X335246Y240209D02*
D03*
Y234698D02*
D03*
X264254Y179728D02*
D03*
Y174217D02*
D03*
X581513Y204199D02*
D03*
Y209711D02*
D03*
X540457Y203806D02*
D03*
Y209317D02*
D03*
X458347Y204199D02*
D03*
Y209711D02*
D03*
X417186Y203806D02*
D03*
Y209317D02*
D03*
X376131Y204199D02*
D03*
Y209711D02*
D03*
X275984Y150000D02*
D03*
Y155512D02*
D03*
X622244Y178346D02*
D03*
Y172835D02*
D03*
X579232Y433268D02*
D03*
Y438780D02*
D03*
X556693Y428752D02*
D03*
Y434264D02*
D03*
X562205D02*
D03*
Y428752D02*
D03*
X579134Y359449D02*
D03*
Y364961D02*
D03*
X285532Y285039D02*
D03*
Y279527D02*
D03*
X303543Y279528D02*
D03*
Y285039D02*
D03*
X85323Y373047D02*
D03*
Y367535D02*
D03*
X105082Y216473D02*
D03*
Y210962D02*
D03*
X85323Y398638D02*
D03*
Y404150D02*
D03*
X104688Y242458D02*
D03*
Y247969D02*
D03*
X42421Y367913D02*
D03*
Y373425D02*
D03*
X127055Y373047D02*
D03*
Y367535D02*
D03*
X146814Y216473D02*
D03*
Y210962D02*
D03*
X42421Y404528D02*
D03*
Y399016D02*
D03*
X210913Y398638D02*
D03*
Y404150D02*
D03*
X230279Y242064D02*
D03*
Y247576D02*
D03*
X210913Y373441D02*
D03*
Y367929D02*
D03*
X230279Y216867D02*
D03*
Y211355D02*
D03*
X272011Y217261D02*
D03*
Y211749D02*
D03*
X168787Y373047D02*
D03*
Y367535D02*
D03*
X188546Y216867D02*
D03*
Y211355D02*
D03*
X168787Y398638D02*
D03*
Y404150D02*
D03*
X188546Y241277D02*
D03*
Y246788D02*
D03*
X272011Y241670D02*
D03*
Y247182D02*
D03*
X127055Y398244D02*
D03*
Y403756D02*
D03*
X146814Y240883D02*
D03*
Y246394D02*
D03*
X42421Y388386D02*
D03*
Y393898D02*
D03*
X168809Y388832D02*
D03*
Y394344D02*
D03*
X127055Y387614D02*
D03*
Y393126D02*
D03*
X85323Y388402D02*
D03*
Y393914D02*
D03*
X104688Y231828D02*
D03*
Y237339D02*
D03*
X146814Y231434D02*
D03*
Y236946D02*
D03*
X210913Y388795D02*
D03*
Y394307D02*
D03*
X272011Y231828D02*
D03*
Y237339D02*
D03*
X188546Y231434D02*
D03*
Y236946D02*
D03*
X230279Y231828D02*
D03*
Y237339D02*
D03*
X250984Y82087D02*
D03*
Y87599D02*
D03*
X243012Y82087D02*
D03*
Y87599D02*
D03*
X209252Y81890D02*
D03*
Y87402D02*
D03*
X202461Y35335D02*
D03*
Y29823D02*
D03*
X210335Y35335D02*
D03*
Y29823D02*
D03*
X262669Y25452D02*
D03*
Y19940D02*
D03*
X273069Y33952D02*
D03*
Y28440D02*
D03*
X335246Y203595D02*
D03*
Y209107D02*
D03*
Y224068D02*
D03*
Y229580D02*
D03*
X275984Y166142D02*
D03*
Y160630D02*
D03*
X335146Y149361D02*
D03*
Y143849D02*
D03*
X417186Y223884D02*
D03*
Y229396D02*
D03*
X376091Y149754D02*
D03*
Y144243D02*
D03*
X417035Y149754D02*
D03*
Y144243D02*
D03*
X376131Y223884D02*
D03*
Y229396D02*
D03*
X458347Y224278D02*
D03*
Y229790D02*
D03*
X499402Y224672D02*
D03*
Y230183D02*
D03*
X540457Y224278D02*
D03*
Y229790D02*
D03*
X622568Y223884D02*
D03*
Y229396D02*
D03*
Y234514D02*
D03*
Y240026D02*
D03*
Y209317D02*
D03*
Y203806D02*
D03*
X458374Y149754D02*
D03*
Y144243D02*
D03*
X499319Y149754D02*
D03*
Y144243D02*
D03*
X540264Y149361D02*
D03*
Y143849D02*
D03*
X581209Y149754D02*
D03*
Y144243D02*
D03*
X622154Y149361D02*
D03*
Y143849D02*
D03*
X396063Y380512D02*
D03*
Y375000D02*
D03*
X275197Y426673D02*
D03*
Y421161D02*
D03*
D149*
X448032Y23929D02*
D03*
X439032D02*
D03*
X395276D02*
D03*
X404276D02*
D03*
X240471Y262888D02*
D03*
X231471D02*
D03*
X93665Y254268D02*
D03*
X84665D02*
D03*
X51071Y302968D02*
D03*
X42071D02*
D03*
X51071Y333677D02*
D03*
X42071D02*
D03*
X51071Y342732D02*
D03*
X42071D02*
D03*
X152252Y333283D02*
D03*
X143252D02*
D03*
X152264Y342323D02*
D03*
X143264D02*
D03*
X152252Y318323D02*
D03*
X143252D02*
D03*
X152252Y302575D02*
D03*
X143252D02*
D03*
X62882Y302968D02*
D03*
X71882D02*
D03*
X62882Y319110D02*
D03*
X71882D02*
D03*
X62882Y333283D02*
D03*
X71882D02*
D03*
X91228D02*
D03*
X82228D02*
D03*
X91228Y319110D02*
D03*
X82228D02*
D03*
X9996Y238583D02*
D03*
X18996D02*
D03*
X19587Y278051D02*
D03*
X10587D02*
D03*
X25098Y293406D02*
D03*
X16098D02*
D03*
X53071Y254788D02*
D03*
X44071D02*
D03*
D150*
X396850Y413287D02*
D03*
X402362D02*
D03*
X254134Y159350D02*
D03*
X248622D02*
D03*
X253937Y166142D02*
D03*
X248425D02*
D03*
X36244Y141091D02*
D03*
X41756D02*
D03*
X36244Y161758D02*
D03*
X41756D02*
D03*
X368602Y331890D02*
D03*
X374114D02*
D03*
X615854Y136762D02*
D03*
X610343D02*
D03*
X574516D02*
D03*
X569004D02*
D03*
X533571D02*
D03*
X528059D02*
D03*
X492626D02*
D03*
X487114D02*
D03*
X451681D02*
D03*
X446169D02*
D03*
X409949D02*
D03*
X404437D02*
D03*
X369398D02*
D03*
X363886D02*
D03*
X328453D02*
D03*
X322941D02*
D03*
X574122Y186762D02*
D03*
X568610D02*
D03*
X533571D02*
D03*
X528059D02*
D03*
X492626D02*
D03*
X487114D02*
D03*
X451681D02*
D03*
X446169D02*
D03*
X410343D02*
D03*
X404831D02*
D03*
X369398D02*
D03*
X363886D02*
D03*
X328846D02*
D03*
X323335D02*
D03*
X519150Y380957D02*
D03*
X524661D02*
D03*
Y387457D02*
D03*
X519150D02*
D03*
X506098Y376055D02*
D03*
X511610D02*
D03*
X483169Y388484D02*
D03*
X477657D02*
D03*
X483169Y376772D02*
D03*
X477657D02*
D03*
X506098Y380780D02*
D03*
X511610D02*
D03*
X506098Y385504D02*
D03*
X511610D02*
D03*
X506098Y390228D02*
D03*
X511610D02*
D03*
X546063Y387402D02*
D03*
X540551D02*
D03*
X562992Y344083D02*
D03*
X557480D02*
D03*
Y350185D02*
D03*
X562992D02*
D03*
X546063Y380957D02*
D03*
X540551D02*
D03*
X63315Y214088D02*
D03*
X68827D02*
D03*
X63315Y244288D02*
D03*
X68827D02*
D03*
X233843Y340061D02*
D03*
X228331D02*
D03*
X234507Y296600D02*
D03*
X228995D02*
D03*
X259827Y340061D02*
D03*
X265339D02*
D03*
X259704Y296600D02*
D03*
X265216D02*
D03*
X259630Y381386D02*
D03*
X265142D02*
D03*
X235614D02*
D03*
X230102D02*
D03*
X63315Y232988D02*
D03*
X68827D02*
D03*
X245063Y381386D02*
D03*
X239551D02*
D03*
X244079Y340061D02*
D03*
X238567D02*
D03*
X244350Y296600D02*
D03*
X238838D02*
D03*
X245525Y25596D02*
D03*
X240013D02*
D03*
X273025Y42296D02*
D03*
X267513D02*
D03*
X573327Y217224D02*
D03*
X567815D02*
D03*
X270177Y435236D02*
D03*
X275689D02*
D03*
X347244Y332087D02*
D03*
X341732D02*
D03*
X310925Y325000D02*
D03*
X316437D02*
D03*
D151*
X198622Y115847D02*
D03*
Y121752D02*
D03*
X244996Y116028D02*
D03*
Y121933D02*
D03*
X208918D02*
D03*
Y116028D02*
D03*
X239842D02*
D03*
Y121933D02*
D03*
X229534Y116028D02*
D03*
Y121933D02*
D03*
X203764Y116028D02*
D03*
Y121933D02*
D03*
X234688Y116028D02*
D03*
Y121933D02*
D03*
X173524Y149803D02*
D03*
Y155709D02*
D03*
X114075D02*
D03*
Y149803D02*
D03*
X579134Y345276D02*
D03*
Y351181D02*
D03*
X579232Y418799D02*
D03*
Y424705D02*
D03*
X557480Y360028D02*
D03*
Y365933D02*
D03*
X563386Y360028D02*
D03*
Y365933D02*
D03*
X562205Y412020D02*
D03*
Y417925D02*
D03*
X556693Y412020D02*
D03*
Y417925D02*
D03*
X291535Y285236D02*
D03*
Y279331D02*
D03*
X297539Y279331D02*
D03*
Y285236D02*
D03*
X247343Y139370D02*
D03*
Y145276D02*
D03*
X191429Y139776D02*
D03*
Y145681D02*
D03*
X402362Y361417D02*
D03*
Y355512D02*
D03*
X371654Y317618D02*
D03*
Y323524D02*
D03*
X100098Y149803D02*
D03*
Y155709D02*
D03*
X287303Y449999D02*
D03*
Y444094D02*
D03*
X287205Y421063D02*
D03*
Y426969D02*
D03*
X265551Y426673D02*
D03*
Y420768D02*
D03*
X238287Y426476D02*
D03*
Y420571D02*
D03*
X213976Y115945D02*
D03*
Y121850D02*
D03*
D152*
X131693Y69600D02*
D03*
X168209D02*
D03*
X131693Y37300D02*
D03*
X168209D02*
D03*
D153*
X27700Y121757D02*
D03*
X483465Y33071D02*
D03*
X85630Y31201D02*
D03*
D154*
X17700Y121757D02*
D03*
X27700Y131757D02*
D03*
X17700D02*
D03*
X27700Y141758D02*
D03*
X17700D02*
D03*
X27700Y151758D02*
D03*
X17700D02*
D03*
X27700Y161758D02*
D03*
X17700D02*
D03*
X556693Y400000D02*
D03*
Y392126D02*
D03*
Y384252D02*
D03*
X588189D02*
D03*
Y400000D02*
D03*
X483465Y63071D02*
D03*
Y53071D02*
D03*
Y43071D02*
D03*
X85630Y41201D02*
D03*
Y51201D02*
D03*
Y61201D02*
D03*
D155*
X11161Y65571D02*
D03*
Y25571D02*
D03*
X51161Y55571D02*
D03*
Y35571D02*
D03*
X71161Y45571D02*
D03*
X569687Y264713D02*
D03*
X524017Y296209D02*
D03*
X310521D02*
D03*
X333356Y264713D02*
D03*
X394355D02*
D03*
X371520Y296209D02*
D03*
X463018D02*
D03*
X485853Y264713D02*
D03*
X432519Y296209D02*
D03*
X455354Y264713D02*
D03*
X402020Y296209D02*
D03*
X424854Y264713D02*
D03*
X341021Y296209D02*
D03*
X363855Y264713D02*
D03*
X76268Y271472D02*
D03*
X30598Y302968D02*
D03*
X493518Y296209D02*
D03*
X516353Y264713D02*
D03*
D156*
X585039Y56693D02*
D03*
D157*
X609449D02*
D03*
D158*
X597638Y76378D02*
D03*
D159*
X503346Y396850D02*
D03*
X500394Y383071D02*
D03*
X503346Y369291D02*
D03*
D160*
X517126Y398071D02*
D03*
Y368071D02*
D03*
D161*
X335200Y197309D02*
D03*
Y247309D02*
D03*
X305200Y197309D02*
D03*
Y217309D02*
D03*
Y247309D02*
D03*
X335200Y217309D02*
D03*
X589213Y20472D02*
D03*
X609213D02*
D03*
X376170Y197309D02*
D03*
Y247309D02*
D03*
X346170Y197309D02*
D03*
Y217309D02*
D03*
Y247309D02*
D03*
X376170Y217309D02*
D03*
X272106Y296639D02*
D03*
X222106D02*
D03*
X272106Y266639D02*
D03*
X252106D02*
D03*
X222106D02*
D03*
X252106Y296639D02*
D03*
X271985Y204466D02*
D03*
Y254466D02*
D03*
X241985Y204466D02*
D03*
Y224465D02*
D03*
Y254466D02*
D03*
X271985Y224465D02*
D03*
X188389Y204466D02*
D03*
Y254466D02*
D03*
X158389Y204466D02*
D03*
Y224465D02*
D03*
Y254466D02*
D03*
X188389Y224465D02*
D03*
X230187Y204466D02*
D03*
Y254466D02*
D03*
X200187Y204466D02*
D03*
Y224465D02*
D03*
Y254466D02*
D03*
X230187Y224465D02*
D03*
X104793Y204466D02*
D03*
Y254466D02*
D03*
X74793Y204466D02*
D03*
Y224465D02*
D03*
Y254466D02*
D03*
X104793Y224465D02*
D03*
X146591Y204466D02*
D03*
Y254466D02*
D03*
X116591Y204466D02*
D03*
Y224465D02*
D03*
Y254466D02*
D03*
X146591Y224465D02*
D03*
X127016Y361039D02*
D03*
Y411039D02*
D03*
X97016Y361039D02*
D03*
Y381039D02*
D03*
Y411039D02*
D03*
X127016Y381039D02*
D03*
X168906Y361039D02*
D03*
Y411039D02*
D03*
X138906Y361039D02*
D03*
Y381039D02*
D03*
Y411039D02*
D03*
X168906Y381039D02*
D03*
X211189Y361039D02*
D03*
Y411039D02*
D03*
X181189Y361039D02*
D03*
Y381039D02*
D03*
Y411039D02*
D03*
X211189Y381039D02*
D03*
X272031Y381425D02*
D03*
X222031D02*
D03*
X272031Y351425D02*
D03*
X252031D02*
D03*
X222031D02*
D03*
X252031Y381425D02*
D03*
X63271Y204288D02*
D03*
Y254288D02*
D03*
X33271Y204288D02*
D03*
Y224288D02*
D03*
Y254288D02*
D03*
X63271Y224288D02*
D03*
X42573Y361088D02*
D03*
Y411088D02*
D03*
X12573Y361088D02*
D03*
Y381088D02*
D03*
Y411088D02*
D03*
X42573Y381088D02*
D03*
X376130Y136565D02*
D03*
Y186565D02*
D03*
X346130Y136565D02*
D03*
Y156565D02*
D03*
Y186565D02*
D03*
X376130Y156565D02*
D03*
X458413Y136565D02*
D03*
Y186565D02*
D03*
X428413Y136565D02*
D03*
Y156565D02*
D03*
Y186565D02*
D03*
X458413Y156565D02*
D03*
X499358Y136565D02*
D03*
Y186565D02*
D03*
X469358Y136565D02*
D03*
Y156565D02*
D03*
Y186565D02*
D03*
X499358Y156565D02*
D03*
X540303Y136565D02*
D03*
Y186565D02*
D03*
X510303Y136565D02*
D03*
Y156565D02*
D03*
Y186565D02*
D03*
X540303Y156565D02*
D03*
X581248Y136565D02*
D03*
Y186565D02*
D03*
X551248Y136565D02*
D03*
Y156565D02*
D03*
Y186565D02*
D03*
X581248Y156565D02*
D03*
X622193Y136565D02*
D03*
Y186565D02*
D03*
X592193Y136565D02*
D03*
Y156565D02*
D03*
Y186565D02*
D03*
X622193Y156565D02*
D03*
X622607Y197309D02*
D03*
Y247309D02*
D03*
X592607Y197309D02*
D03*
Y217309D02*
D03*
Y247309D02*
D03*
X622607Y217309D02*
D03*
X581552Y197309D02*
D03*
Y247309D02*
D03*
X551552Y197309D02*
D03*
Y217309D02*
D03*
Y247309D02*
D03*
X581552Y217309D02*
D03*
X540497Y197309D02*
D03*
Y247309D02*
D03*
X510497Y197309D02*
D03*
Y217309D02*
D03*
Y247309D02*
D03*
X540497Y217309D02*
D03*
X499442Y197309D02*
D03*
Y247309D02*
D03*
X469442Y197309D02*
D03*
Y217309D02*
D03*
Y247309D02*
D03*
X499442Y217309D02*
D03*
X458387Y197309D02*
D03*
Y247309D02*
D03*
X428387Y197309D02*
D03*
Y217309D02*
D03*
Y247309D02*
D03*
X458387Y217309D02*
D03*
X417075Y136565D02*
D03*
Y186565D02*
D03*
X387075Y136565D02*
D03*
Y156565D02*
D03*
Y186565D02*
D03*
X417075Y156565D02*
D03*
X417225Y197309D02*
D03*
Y247309D02*
D03*
X387225Y197309D02*
D03*
Y217309D02*
D03*
Y247309D02*
D03*
X417225Y217309D02*
D03*
X264215Y186609D02*
D03*
Y136609D02*
D03*
X294215Y186609D02*
D03*
Y166609D02*
D03*
Y136609D02*
D03*
X264215Y166609D02*
D03*
X335185Y136565D02*
D03*
Y186565D02*
D03*
X305185Y136565D02*
D03*
Y156565D02*
D03*
Y186565D02*
D03*
X335185Y156565D02*
D03*
X272032Y340100D02*
D03*
X222032D02*
D03*
X272032Y310100D02*
D03*
X252032D02*
D03*
X222032D02*
D03*
X252032Y340100D02*
D03*
X85126Y361039D02*
D03*
Y411039D02*
D03*
X55126Y361039D02*
D03*
Y381039D02*
D03*
Y411039D02*
D03*
X85126Y381039D02*
D03*
D162*
X570866Y438752D02*
D03*
Y428752D02*
D03*
X571654Y355118D02*
D03*
Y365118D02*
D03*
D163*
X570866Y418752D02*
D03*
X571654Y345118D02*
D03*
D164*
X544094Y402362D02*
D03*
Y412362D02*
D03*
Y422362D02*
D03*
Y363307D02*
D03*
Y353307D02*
D03*
Y343307D02*
D03*
D165*
X485761Y412362D02*
D03*
Y353307D02*
D03*
D166*
X191930Y75591D02*
D03*
Y52756D02*
D03*
X246555Y74016D02*
D03*
Y54331D02*
D03*
D167*
X41622Y318716D02*
D03*
X65244Y351787D02*
D03*
D168*
X297638Y64469D02*
D03*
Y31398D02*
D03*
D169*
X301181Y47933D02*
D03*
X301181Y54232D02*
D03*
X301181Y41634D02*
D03*
X294094Y51083D02*
D03*
Y44783D02*
D03*
D170*
X600800Y281672D02*
D03*
X306539Y377157D02*
D03*
X288539D02*
D03*
X288441Y333850D02*
D03*
X306441D02*
D03*
D171*
X587808Y268680D02*
D03*
X613792D02*
D03*
Y294665D02*
D03*
X587808D02*
D03*
D172*
X289272Y353346D02*
D03*
X305807D02*
D03*
X23327Y225492D02*
D03*
X6792Y249114D02*
D03*
X305709Y310039D02*
D03*
X289173D02*
D03*
X196934Y344798D02*
D03*
X213469Y321176D02*
D03*
X213276Y271866D02*
D03*
X196740Y295488D02*
D03*
X172331Y344798D02*
D03*
X188866Y321176D02*
D03*
X189260Y271866D02*
D03*
X172724Y295488D02*
D03*
X106976Y344798D02*
D03*
X123512Y321176D02*
D03*
X123905Y271866D02*
D03*
X107370Y295488D02*
D03*
X82960Y344798D02*
D03*
X99496Y321176D02*
D03*
X99890Y271866D02*
D03*
X83354Y295488D02*
D03*
X23327Y269193D02*
D03*
X6792Y292815D02*
D03*
Y336516D02*
D03*
X23327Y312894D02*
D03*
D173*
X175079Y24300D02*
D03*
X184921D02*
D03*
X142179D02*
D03*
X152021D02*
D03*
X142979Y56600D02*
D03*
X152821D02*
D03*
D174*
X119100Y19379D02*
D03*
Y29221D02*
D03*
Y60421D02*
D03*
Y50579D02*
D03*
D175*
X610236Y102362D02*
D03*
Y399606D02*
D03*
X53150Y433071D02*
D03*
Y102362D02*
D03*
D176*
X162119Y304794D02*
D03*
X133723Y309805D02*
D03*
Y335001D02*
D03*
X162119Y329991D02*
D03*
Y278022D02*
D03*
X133723Y283033D02*
D03*
D177*
X515256Y390354D02*
D03*
Y376181D02*
D03*
X515551Y384252D02*
D03*
D178*
X428937Y25504D02*
D03*
X414370D02*
D03*
D179*
X226852Y34327D02*
D03*
D180*
X220947Y35213D02*
D03*
X232758D02*
D03*
D181*
X226852Y24287D02*
D03*
D182*
X217551Y84443D02*
D03*
X235366D02*
D03*
D183*
X226507Y54915D02*
D03*
D184*
X231067Y127142D02*
D03*
Y132142D02*
D03*
Y137142D02*
D03*
Y142142D02*
D03*
X209067D02*
D03*
Y137142D02*
D03*
Y132142D02*
D03*
Y127142D02*
D03*
D185*
X461168Y117126D02*
D03*
X466168D02*
D03*
X471168D02*
D03*
X476168D02*
D03*
X481168D02*
D03*
X486168D02*
D03*
X491168D02*
D03*
X496168D02*
D03*
X501168D02*
D03*
X461168Y81299D02*
D03*
X466168D02*
D03*
X471168D02*
D03*
X476168D02*
D03*
X481168D02*
D03*
X486168D02*
D03*
X491168D02*
D03*
X496168D02*
D03*
X501168D02*
D03*
X428104D02*
D03*
X423104D02*
D03*
X418104D02*
D03*
X413104D02*
D03*
X408104D02*
D03*
X403104D02*
D03*
X398104D02*
D03*
X393104D02*
D03*
X388104D02*
D03*
X428104Y117126D02*
D03*
X423104D02*
D03*
X418104D02*
D03*
X413104D02*
D03*
X408104D02*
D03*
X403104D02*
D03*
X398104D02*
D03*
X393104D02*
D03*
X388104D02*
D03*
X315039D02*
D03*
X320039D02*
D03*
X325039D02*
D03*
X330039D02*
D03*
X335039D02*
D03*
X340039D02*
D03*
X345039D02*
D03*
X350039D02*
D03*
X355039D02*
D03*
X315039Y81299D02*
D03*
X320039D02*
D03*
X325039D02*
D03*
X330039D02*
D03*
X335039D02*
D03*
X340039D02*
D03*
X345039D02*
D03*
X350039D02*
D03*
X355039D02*
D03*
X574232D02*
D03*
X569232D02*
D03*
X564232D02*
D03*
X559232D02*
D03*
X554232D02*
D03*
X549232D02*
D03*
X544232D02*
D03*
X539232D02*
D03*
X534232D02*
D03*
X574232Y117126D02*
D03*
X569232D02*
D03*
X564232D02*
D03*
X559232D02*
D03*
X554232D02*
D03*
X549232D02*
D03*
X544232D02*
D03*
X539232D02*
D03*
X534232D02*
D03*
D186*
X532677Y402362D02*
D03*
Y396063D02*
D03*
Y343307D02*
D03*
Y349606D02*
D03*
D187*
X382004Y376969D02*
D03*
X368504D02*
D03*
X382398Y413287D02*
D03*
X368898D02*
D03*
X355232Y343209D02*
D03*
X341732D02*
D03*
X430325Y395374D02*
D03*
X416825D02*
D03*
Y376969D02*
D03*
X430325D02*
D03*
X416421Y320177D02*
D03*
X429921D02*
D03*
X416825Y358661D02*
D03*
X430325D02*
D03*
X355035Y320177D02*
D03*
X341535D02*
D03*
D188*
X386713Y358858D02*
D03*
X368602D02*
D03*
X386713Y343209D02*
D03*
X368602D02*
D03*
X411713Y343307D02*
D03*
X429823D02*
D03*
X387106Y395374D02*
D03*
X368996D02*
D03*
D189*
X480421Y161959D02*
D03*
Y148459D02*
D03*
X324516Y161959D02*
D03*
Y148459D02*
D03*
X356799D02*
D03*
Y161959D02*
D03*
X314673Y148459D02*
D03*
Y161959D02*
D03*
D190*
X615650Y225197D02*
D03*
Y238583D02*
D03*
X614764Y201181D02*
D03*
Y214567D02*
D03*
X298327Y309843D02*
D03*
Y296457D02*
D03*
X297441Y333366D02*
D03*
Y319980D02*
D03*
X240256Y129724D02*
D03*
Y143110D02*
D03*
X198831Y130685D02*
D03*
Y144071D02*
D03*
X229724Y435039D02*
D03*
Y421654D02*
D03*
D191*
X605118Y230020D02*
D03*
Y235520D02*
D03*
X605020Y209449D02*
D03*
Y203949D02*
D03*
D192*
X613315Y191890D02*
D03*
X613118Y247402D02*
D03*
D193*
X605315Y195590D02*
D03*
Y188090D02*
D03*
X605118Y251102D02*
D03*
Y243602D02*
D03*
D194*
X282579Y435236D02*
D03*
X295965D02*
D03*
X265158Y50492D02*
D03*
X278543D02*
D03*
X49793Y121658D02*
D03*
X36407D02*
D03*
X406594Y331890D02*
D03*
X393209D02*
D03*
D195*
X357087Y404331D02*
D03*
X346457D02*
D03*
Y385925D02*
D03*
X357087D02*
D03*
X346457Y367520D02*
D03*
X357087D02*
D03*
X451476Y343307D02*
D03*
X440846D02*
D03*
X429921Y332087D02*
D03*
X419291D02*
D03*
X332972Y320276D02*
D03*
X322343D02*
D03*
X449311Y317618D02*
D03*
X438681D02*
D03*
X389469Y320079D02*
D03*
X400098D02*
D03*
X419685Y413386D02*
D03*
X430315D02*
D03*
D196*
X245328Y19696D02*
D03*
X240210D02*
D03*
X273028Y19996D02*
D03*
X267910D02*
D03*
M02*
